<svg xmlns="http://www.w3.org/2000/svg" xmlns:xlink="http://www.w3.org/1999/xlink" viewBox="50 120 90 130" width="50" height="50" preserveAspectRatio="xMidYMid meet" version="1.0">
  <defs>
    <g/>
    <clipPath id="fbbc2bf14f">
      <path d="M 57.070312 129.59375 L 151 129.59375 L 151 236 L 57.070312 236 Z M " clip-rule="nonzero"/>
    </clipPath>
    <clipPath id="bd9ef74733">
      <rect x="0" width="170" y="0" height="71"/>
    </clipPath>
  </defs>
  <g clip-path="url(#fbbc2bf14f)">
    <path fill="#0b1958" d="M 90.605469 187.71875 C 76.769531 183.199219 62.945312 195.695312 66.507812 210.113281 C 71.101562 227.882812 90.164062 236.230469 108.925781 235.582031 L 108.925781 222.753906 C 77.5625 223.003906 66.898438 189.585938 90.605469 187.71875 M 95.804688 197.097656 C 94.132812 197.097656 92.777344 198.457031 92.777344 200.128906 C 92.777344 201.800781 94.132812 203.15625 95.804688 203.15625 C 97.480469 203.15625 98.835938 201.800781 98.835938 200.128906 C 98.835938 198.457031 97.480469 197.097656 95.804688 197.097656 Z M 106.539062 197.097656 C 104.863281 197.097656 103.507812 198.457031 103.507812 200.128906 C 103.507812 201.800781 104.863281 203.15625 106.539062 203.15625 C 108.210938 203.15625 109.566406 201.800781 109.566406 200.128906 C 109.566406 198.457031 108.210938 197.097656 106.539062 197.097656 Z M 117.269531 197.097656 C 115.597656 197.097656 114.242188 198.457031 114.242188 200.128906 C 114.242188 201.800781 115.597656 203.15625 117.269531 203.15625 C 118.945312 203.15625 120.300781 201.800781 120.300781 200.128906 C 120.300781 198.457031 118.945312 197.097656 117.269531 197.097656 Z M 98.324219 160.398438 C 83.8125 156.144531 64.421875 147.125 59.191406 131.710938 C 57.5625 136.855469 57.074219 142.109375 57.597656 147.191406 C 57.980469 150.925781 58.617188 154.179688 59.46875 157.023438 C 62.039062 163.703125 66.59375 169.644531 72.824219 173.90625 C 72.195312 170.304688 72.652344 166.597656 74.132812 163.257812 C 82.605469 174.226562 111.257812 177.710938 124.609375 186.664062 C 130.058594 190.320312 133.394531 196.480469 133.394531 203.140625 C 133.394531 215.199219 116.972656 226.980469 109.226562 235.574219 C 126.644531 234.882812 143.734375 226.433594 148.6875 210.5625 C 162.410156 166.558594 94.703125 161.332031 71.832031 129.640625 C 72.855469 145.585938 84.34375 154.5 98.324219 160.398438 Z M 98.324219 160.398438 " fill-opacity="1" fill-rule="evenodd"/>
  </g>
</svg>
